<svg xmlns="http://www.w3.org/2000/svg" viewBox="0 0 48 48" width="48" height="48">
  <path fill="#EA4335" d="M24 9.5c3.9 0 7.2 1.4 9.6 4l7.1-7.1C36.2 2 30.4 0 24 0 14.7 0 6.8 4.9 2.8 12l8.6 6.6C13.6 12.1 18 9.5 24 9.5z"/>
  <path fill="#34A853" d="M46.5 24.5c0-1.6-.2-3.1-.6-4.5H24v9h12.9c-.6 3.2-2.9 6-6.1 7.6l9.3 7.2C45.7 39.8 48 32.6 48 24.5z"/>
  <path fill="#FBBC05" d="M11.4 29.6C10.3 26.9 10 23.8 10 21s.3-5 1.4-8.6L2.8 6.6C1 9.9 0 13.9 0 18.6c0 4.6 1 8.6 2.8 12l8.6-0.99z"/>
  <path fill="#4285F4" d="M24 48c6.4 0 12.2-2 16.6-5.5L31.3 35.3C29 36.9 26.2 38 24 38c-6 0-10.4-2.6-13.6-6.6l-8.6 6.6C6.8 43.1 14.7 48 24 48z"/>
</svg>
